<svg id="Capa_1" enable-background="new 0 0 512 512" height="512" viewBox="0 0 512 512" width="512" xmlns="http://www.w3.org/2000/svg"><g><g><path d="m271 85h210v177c0 19.33-15.67 35-35 35-19.33 0-35 15.67-35 35v95h-140z" fill="#00607f"/><path d="m271 256v171h140v-95c0-19.33 15.67-35 35-35 19.33 0 35-15.67 35-35v-6z" fill="#00465f"/><path d="m481 70h-210c-8.284 0-15 6.716-15 15v342c0 8.284 6.716 15 15 15h140c8.284 0 15-6.716 15-15v-95c0-11.028 8.972-20 20-20 27.57 0 50-22.43 50-50v-177c0-8.284-6.716-15-15-15zm-15 70h-40v-40h40zm-70 0h-40v-40h40zm-110-40h40v40h-40zm0 272h40v40h-40zm110 40h-40v-40h40zm50-130c-27.57 0-50 22.43-50 50v10h-110v-172h180v92c0 11.028-8.972 20-20 20z" fill="#0b799d"/><path d="m466 256v6c0 11.028-8.972 20-20 20-27.57 0-50 22.43-50 50v10h-110v-86h-30v171c0 8.284 6.716 15 15 15h140c8.284 0 15-6.716 15-15v-95c0-11.028 8.972-20 20-20 27.57 0 50-22.43 50-50v-6zm-140 156h-40v-40h40zm70 0h-40v-40h40z" fill="#00607f"/></g><g><g><g><g><path d="m61 54h210v404h-210z" fill="#00607f"/><path d="m61 256h210v202h-210z" fill="#00465f"/><path d="m61 54v101h140 70v-101z" fill="#00607f"/><path d="m61 357h210v101h-210z" fill="#00465f"/></g><path d="m286 54h-240v404h240zm-210 288v-172h180v172zm180-202h-40v-40h40zm-70 0h-40v-40h40zm-110-40h40v40h-40zm0 272h40v40h-40zm70 0h40v40h-40zm110 40h-40v-40h40z" fill="#00465f"/><path d="m256 256v86h-180v-86h-30v202h240v-202zm-140 156h-40v-40h40zm70 0h-40v-40h40zm70 0h-40v-40h40z" fill="#002c3c"/></g><g><g><path d="m281 512h-230c-19.33 0-35-15.67-35-35 0-19.33 15.67-35 35-35h230c19.33 0 35 15.67 35 35 0 19.33-15.67 35-35 35z" fill="#00c6cb"/></g><g><path d="m281 70h-230c-19.33 0-35-15.67-35-35 0-19.33 15.67-35 35-35h230c19.33 0 35 15.67 35 35 0 19.33-15.67 35-35 35z" fill="#00ddc1"/></g></g></g></g></g></svg>